<svg width="20" height="20" viewBox="0 0 48 48" xmlns="http://www.w3.org/2000/svg">
  <path fill="#4285F4" d="M24 9.5c3.4 0 6.3 1.2 8.6 3.1l6.4-6.4C34.6 2.1 29.7 0 24 0 14.8 0 6.9 5.7 3 13.9l7.5 5.8C12.2 13 17.6 9.5 24 9.5z"/>
  <path fill="#34A853" d="M46.5 24.5c0-1.5-.1-3-.4-4.5H24v9h13c-.6 3-2.2 5.5-4.6 7.2l7.5 5.8c4.4-4.1 6.6-10 6.6-16.5z"/>
  <path fill="#FBBC05" d="M10.5 28.2c-1-3-1-6.2 0-9.2l-7.5-5.8c-2.4 4.7-3 10.2-1.5 15.3l7.5-5.8z"/>
  <path fill="#EA4335" d="M24 48c5.7 0 10.5-1.9 14.3-5.3l-7.5-5.8c-2.2 1.5-4.9 2.3-7.8 2.3-6.4 0-11.8-4.3-13.7-10.2l-7.5 5.8C7.9 42.3 15.2 48 24 48z"/>
</svg>
